<svg xmlns="http://www.w3.org/2000/svg" xmlns:xlink="http://www.w3.org/1999/xlink" viewBox="0 0 288.72 239.47"><defs><style>.cls-1,.cls-29,.cls-34,.cls-7,.cls-8{fill:none;}.cls-2{isolation:isolate;}.cls-3{fill:#0d0e57;}.cls-26,.cls-38,.cls-4{fill:#fff;}.cls-5{fill:#dc3fa6;}.cls-6{fill:#00e7ff;}.cls-7,.cls-8{stroke:#fff;}.cls-29,.cls-7,.cls-8{stroke-linecap:round;}.cls-34,.cls-7,.cls-8{stroke-miterlimit:10;}.cls-29,.cls-7{stroke-width:2.08px;}.cls-8{stroke-width:3.38px;stroke-dasharray:8.69 8.69;}.cls-9{fill:#e90000;}.cls-10{fill:#0679b8;}.cls-11{fill:#6991e6;}.cls-12,.cls-16,.cls-17,.cls-18,.cls-24,.cls-25,.cls-32,.cls-37{mix-blend-mode:multiply;}.cls-12{fill:url(#Degradado_sin_nombre_18);}.cls-13{fill:#8ffbff;}.cls-14{fill:#0d4082;}.cls-15{fill:#5271b3;}.cls-16{fill:url(#Degradado_sin_nombre_2);}.cls-17{fill:url(#Degradado_sin_nombre_2-2);}.cls-18{fill:url(#Degradado_sin_nombre_2-3);}.cls-19{fill:url(#Degradado_sin_nombre_136);}.cls-20{fill:url(#Degradado_sin_nombre_136-2);}.cls-21{fill:url(#Degradado_sin_nombre_136-3);}.cls-22{fill:url(#Degradado_sin_nombre_136-4);}.cls-23{fill:url(#Degradado_sin_nombre_136-5);}.cls-24{fill:url(#Degradado_sin_nombre_2-4);}.cls-25{fill:url(#Degradado_sin_nombre_2-5);}.cls-26{font-size:12.49px;font-family:Metropolis-Black, Metropolis Black;font-weight:800;}.cls-27{letter-spacing:-0.08em;}.cls-28{letter-spacing:-0.08em;}.cls-29{stroke:#5271b3;stroke-linejoin:round;}.cls-30{fill:url(#Degradado_sin_nombre_136-6);}.cls-31{fill:url(#Degradado_sin_nombre_136-7);}.cls-32{fill:url(#Degradado_sin_nombre_2-6);}.cls-33{clip-path:url(#clip-path);}.cls-34{stroke:#0d0e57;stroke-width:4.05px;}.cls-35{fill:url(#Degradado_sin_nombre_136-8);}.cls-36{fill:url(#Degradado_sin_nombre_136-9);}.cls-37{fill:url(#Degradado_sin_nombre_2-7);}.cls-38{font-size:21.07px;font-family:Metropolis-Bold, Metropolis Bold;font-weight:700;}.cls-39{fill:url(#Degradado_sin_nombre_136-10);}.cls-40{fill:url(#Degradado_sin_nombre_136-11);}</style><linearGradient id="Degradado_sin_nombre_18" x1="197.37" y1="67.29" x2="197.37" y2="73.07" gradientTransform="translate(10.85 -5)" gradientUnits="userSpaceOnUse"><stop offset="0" stop-color="#b3b3b3"/><stop offset="1" stop-color="#ccc" stop-opacity="0"/></linearGradient><linearGradient id="Degradado_sin_nombre_2" x1="210.05" y1="41.4" x2="210.05" y2="52.73" gradientTransform="matrix(1, 0, 0, 1, 4.21, -7.27)" gradientUnits="userSpaceOnUse"><stop offset="0" stop-color="#6978b3"/><stop offset="1" stop-color="#7680cc" stop-opacity="0"/></linearGradient><linearGradient id="Degradado_sin_nombre_2-2" x1="144.53" y1="76.02" x2="144.53" y2="84.62" gradientTransform="translate(-0.74 44.23) rotate(-13.82)" xlink:href="#Degradado_sin_nombre_2"/><linearGradient id="Degradado_sin_nombre_2-3" x1="232.01" y1="67.67" x2="236.71" y2="74.77" gradientTransform="translate(-0.74 44.23) rotate(-13.82)" xlink:href="#Degradado_sin_nombre_2"/><linearGradient id="Degradado_sin_nombre_136" x1="159.07" y1="6.14" x2="120.71" y2="44.5" gradientTransform="translate(-0.74 44.23) rotate(-13.82)" gradientUnits="userSpaceOnUse"><stop offset="0" stop-color="#fff"/><stop offset="1" stop-color="#fff" stop-opacity="0"/></linearGradient><linearGradient id="Degradado_sin_nombre_136-2" x1="165.9" y1="12.97" x2="127.54" y2="51.32" xlink:href="#Degradado_sin_nombre_136"/><linearGradient id="Degradado_sin_nombre_136-3" x1="223.08" y1="6.46" x2="186.82" y2="42.72" xlink:href="#Degradado_sin_nombre_136"/><linearGradient id="Degradado_sin_nombre_136-4" x1="230.16" y1="13.54" x2="193.9" y2="49.8" xlink:href="#Degradado_sin_nombre_136"/><linearGradient id="Degradado_sin_nombre_136-5" x1="177.01" y1="44.91" x2="243.16" y2="44.91" xlink:href="#Degradado_sin_nombre_136"/><linearGradient id="Degradado_sin_nombre_2-4" x1="212.27" y1="31.24" x2="212.27" y2="45.1" gradientTransform="translate(3 -7.66)" xlink:href="#Degradado_sin_nombre_2"/><linearGradient id="Degradado_sin_nombre_2-5" x1="197.64" y1="19.98" x2="197.64" y2="33.84" gradientTransform="translate(0.73 -3.84)" xlink:href="#Degradado_sin_nombre_2"/><linearGradient id="Degradado_sin_nombre_136-6" x1="108.86" y1="-31.68" x2="55.74" y2="121.2" gradientTransform="matrix(1, 0, 0, 1, 0, 0)" xlink:href="#Degradado_sin_nombre_136"/><linearGradient id="Degradado_sin_nombre_136-7" x1="128.38" y1="-24.9" x2="75.26" y2="127.98" gradientTransform="matrix(1, 0, 0, 1, 0, 0)" xlink:href="#Degradado_sin_nombre_136"/><linearGradient id="Degradado_sin_nombre_2-6" x1="382.11" y1="-1251.53" x2="382.11" y2="-1243.91" gradientTransform="translate(-278.67 1367.54)" xlink:href="#Degradado_sin_nombre_2"/><clipPath id="clip-path"><path class="cls-1" d="M228.35,123.82c0,11.39-8.85,22.21-13.16,32A79.54,79.54,0,1,1,142.36,44.29C186.29,44.29,228.35,79.9,228.35,123.82Z"/></clipPath><linearGradient id="Degradado_sin_nombre_136-8" x1="242.69" y1="103" x2="119.18" y2="153.96" gradientTransform="matrix(1, 0, 0, 1, 0, 0)" xlink:href="#Degradado_sin_nombre_136"/><linearGradient id="Degradado_sin_nombre_136-9" x1="250.75" y1="122.53" x2="127.24" y2="173.49" gradientTransform="matrix(1, 0, 0, 1, 0, 0)" xlink:href="#Degradado_sin_nombre_136"/><linearGradient id="Degradado_sin_nombre_2-7" x1="425.48" y1="2019.83" x2="425.48" y2="2027.28" gradientTransform="translate(-276.34 -1832.65)" xlink:href="#Degradado_sin_nombre_2"/><linearGradient id="Degradado_sin_nombre_136-10" x1="196.3" y1="165.09" x2="134.85" y2="234.88" gradientTransform="matrix(1, 0, 0, 1, 0, 0)" xlink:href="#Degradado_sin_nombre_136"/><linearGradient id="Degradado_sin_nombre_136-11" x1="211.06" y1="178.09" x2="149.61" y2="247.88" gradientTransform="matrix(1, 0, 0, 1, 0, 0)" xlink:href="#Degradado_sin_nombre_136"/></defs><g class="cls-2"><g id="Layer_2" data-name="Layer 2"><g id="OBJECTS"><path class="cls-3" d="M42.73,26a3.93,3.93,0,1,0-5.34,1.5A3.93,3.93,0,0,0,42.73,26Z"/><path class="cls-4" d="M59.07,9.13a3.92,3.92,0,1,0-5.34,1.51A3.92,3.92,0,0,0,59.07,9.13Z"/><path class="cls-4" d="M30.84,37.78a3.93,3.93,0,1,0-5.34,1.51A3.92,3.92,0,0,0,30.84,37.78Z"/><path class="cls-5" d="M71.55,13.36h36.73a4.87,4.87,0,0,0,4.86-4.86h0a4.87,4.87,0,0,0-4.86-4.86H71.55A4.87,4.87,0,0,0,66.69,8.5h0A4.87,4.87,0,0,0,71.55,13.36Z"/><path class="cls-6" d="M51.64,27.78h9.7a4.05,4.05,0,0,0,4.06-4.06h0a4,4,0,0,0-4.06-4h-9.7a4,4,0,0,0-4,4h0A4,4,0,0,0,51.64,27.78Z"/><path class="cls-6" d="M27.55,53H59.13a4.06,4.06,0,0,0,4.06-4.06h0a4.06,4.06,0,0,0-4.06-4.06H27.55a4.06,4.06,0,0,0-4.06,4.06h0A4.06,4.06,0,0,0,27.55,53Z"/><path class="cls-5" d="M74.05,40.89h9.7a4.05,4.05,0,0,0,4.06-4h0a4.06,4.06,0,0,0-4.06-4.06h-9.7A4.06,4.06,0,0,0,70,36.84h0A4.05,4.05,0,0,0,74.05,40.89Z"/><rect class="cls-3" y="4.85" width="42.81" height="8.12" rx="2.85" transform="translate(42.81 17.82) rotate(180)"/><rect class="cls-3" x="43.23" y="32.78" width="17.82" height="8.12" rx="2.85" transform="translate(104.28 73.67) rotate(180)"/><path class="cls-3" d="M107.07,26a3.93,3.93,0,1,0-5.34,1.5A3.93,3.93,0,0,0,107.07,26Z"/><path class="cls-4" d="M95.19,37.78a3.93,3.93,0,1,0-5.35,1.51A3.92,3.92,0,0,0,95.19,37.78Z"/><path class="cls-6" d="M116,27.78h9.7a4,4,0,0,0,4.05-4.06h0a4,4,0,0,0-4.05-4H116a4,4,0,0,0-4.06,4h0A4.05,4.05,0,0,0,116,27.78Z"/><path class="cls-6" d="M91.89,53h31.58a4.06,4.06,0,0,0,4.06-4.06h0a4.06,4.06,0,0,0-4.06-4.06H91.89a4.06,4.06,0,0,0-4.06,4.06h0A4.06,4.06,0,0,0,91.89,53Z"/><rect class="cls-3" x="107.57" y="32.78" width="17.82" height="8.12" rx="2.85" transform="translate(232.97 73.67) rotate(180)"/><circle class="cls-7" cx="142.47" cy="123.71" r="80.71" transform="translate(-45.75 136.98) rotate(-45)"/><circle class="cls-8" cx="142.47" cy="123.71" r="91.67"/><circle class="cls-9" cx="142.36" cy="123.82" r="79.53" transform="translate(-45.86 136.93) rotate(-45)"/><path class="cls-3" d="M263.32,42.3l4.21-4.9a28.2,28.2,0,0,0-12.61-3L254.09,31l-.57-2.3-3.63-14.76h0l-.19-.77a4,4,0,0,0-.25-.69A15.06,15.06,0,0,0,247.9,9.4l-.36-.53c-.14-.19-.28-.36-.42-.54s-.26-.33-.4-.48-.29-.34-.44-.5l-.46-.46-.47-.43a7.22,7.22,0,0,0-.6-.5c-.21-.17-.43-.33-.66-.49s-.48-.34-.73-.5l-.49-.28-.65-.35q-.25-.13-.51-.24c-.23-.11-.47-.21-.7-.3l-.5-.19c-.28-.1-.56-.18-.84-.27l-.4-.11c-.42-.11-.83-.2-1.26-.27l-.35,0c-.32,0-.64-.09-1-.11l-.48,0c-.29,0-.59,0-.88,0l-.49,0c-.31,0-.62,0-.93.08l-.44.05c-.45.07-.9.15-1.36.26h0L231,3.47l-2.75.67-10.9,2.69-6.88,1.69c-1.1.27-1.94.73-1.67,1.84a2.07,2.07,0,0,0,2.5,1.51L220,9.73l5.29,5.88L211,19.13a6.48,6.48,0,0,0-12.58,3.09v0a14.59,14.59,0,0,0-10.53,16.2,3.36,3.36,0,0,0-2-.11l-16.09,4a3.41,3.41,0,0,0-2.35,2.07l-6.27-8.58L141.92,40.5A12.76,12.76,0,0,0,132.57,56l3,12.14c0,.11.07.21.1.31h0l1,3.41a11,11,0,0,0,7.65,7.42,21,21,0,0,0-.46,2.39l-1.88.46-3.87,1,2.08,8.44,3.86-.95.43-.1a22,22,0,0,0,42.45-.13l15.9-3.91,35.86-8.82A22,22,0,1,0,263.32,42.3ZM189.15,44l.13.53-1.78.44A3.49,3.49,0,0,0,189.15,44Zm-18.91,5.21-.05-.22a3.62,3.62,0,0,0,1.22-.07Z"/><path class="cls-10" d="M137.29,61.27a6,6,0,0,0-7.26-4.4l2.86,11.67A6,6,0,0,0,137.29,61.27Z"/><path class="cls-11" d="M167.91,70.9l-22.4,5.51a15.13,15.13,0,0,1-18.3-11.08l-3-12.14a12.77,12.77,0,0,1,9.35-15.45L152.81,33l8.72,11.92Z"/><rect class="cls-11" x="165.9" y="35.54" width="85.76" height="43.93" transform="translate(-7.69 51.53) rotate(-13.82)"/><rect class="cls-12" x="190.07" y="64.66" width="36.31" height="5.53" transform="translate(-10.08 51.68) rotate(-13.82)"/><path class="cls-6" d="M129.8,70.81a15.14,15.14,0,0,0,15.71,5.6l22.4-5.51L165.72,62Z"/><rect class="cls-13" x="165.99" y="51.55" width="85.76" height="12.66" transform="translate(-7.78 51.56) rotate(-13.82)"/><rect class="cls-13" x="169.99" y="69.28" width="85.76" height="9.69" transform="translate(-11.54 52.98) rotate(-13.82)"/><path class="cls-14" d="M194.47,83.64l-35.84,8.81L154.3,73.21l-12.76,3.3a11,11,0,0,1-13.23-7.45l-1-3.42,56-13.78a1.88,1.88,0,0,1,2.18,1.08l11.4,26.68A3.32,3.32,0,0,1,194.47,83.64Z"/><circle class="cls-11" cx="157.33" cy="81.78" r="22.02" transform="translate(-19.71 91.7) rotate(-30.67)"/><circle class="cls-15" cx="157.33" cy="81.78" r="10.68" transform="translate(67.16 234.45) rotate(-86.9)"/><circle class="cls-11" cx="246.48" cy="59.85" r="22.02" transform="translate(78.73 250.1) rotate(-62.24)"/><path class="cls-15" d="M256.85,57.3a10.68,10.68,0,1,1-12.92-7.82A10.68,10.68,0,0,1,256.85,57.3Z"/><path class="cls-5" d="M131.68,58.37a6,6,0,0,0-7.27-4.4l2.87,11.67A6,6,0,0,0,131.68,58.37Z"/><rect class="cls-16" x="181.22" y="30.29" width="66.1" height="17.23" transform="translate(-3.09 52.3) rotate(-13.82)"/><path class="cls-17" d="M143.58,99l33.9-8.34a21.86,21.86,0,0,0,1.37-13.47L136.12,87.67A21.93,21.93,0,0,0,143.58,99Z"/><path class="cls-11" d="M192.95,14.57H241A3.47,3.47,0,0,1,244.5,18V36.41A3.47,3.47,0,0,1,241,39.87H181.81a3.47,3.47,0,0,1-3.47-3.47V29.18a14.6,14.6,0,0,1,14.6-14.6Z" transform="translate(-0.38 51.28) rotate(-13.82)"/><path class="cls-14" d="M179.15,42.17l-16.09,4a3.41,3.41,0,0,1-4.12-2.49h0a3.41,3.41,0,0,1,2.49-4.12l16.09-4a3.41,3.41,0,0,1,4.12,2.49h0A3.41,3.41,0,0,1,179.15,42.17Z"/><path class="cls-14" d="M223.48,4.05,203,9.1a2,2,0,0,1-2.49-1.51h0c-.28-1.1.56-1.56,1.66-1.84l20.53-5Z"/><path class="cls-11" d="M241.54,11.18l-21.4,5.26L209,4.06,223.78.43a14.68,14.68,0,0,1,17.76,10.75Z"/><path class="cls-4" d="M239.91,7.19A14.69,14.69,0,0,0,223.78.43l-3.87,1,6.87,9Z"/><rect class="cls-14" x="241.11" y="53.78" width="5.95" height="5.95" transform="translate(40.81 203.31) rotate(-48.88)"/><path class="cls-18" d="M226.16,68.33a22,22,0,0,0,8.06,9.81L262.73,45a22.09,22.09,0,0,0-15.07-7.13l-.17,0A28.24,28.24,0,0,0,226.16,68.33Z"/><path class="cls-14" d="M239.74,32.43a28.23,28.23,0,0,0-16.29,43.75l35.73-41.55A28.11,28.11,0,0,0,239.74,32.43Z"/><path class="cls-19" d="M144,35.17l-6.37,1.56L125.22,57.26l1.56,6.32Q135.36,49.35,144,35.17Z"/><path class="cls-20" d="M155.14,36.19,152.81,33l-2.52.62L128.76,69.2a15.19,15.19,0,0,0,3.8,4.4C140.08,61.12,147.64,48.67,155.14,36.19Z"/><path class="cls-21" d="M191.58,45.13q9.3-15.33,18.65-30.64l-7.63,1.88L184.29,46.63a3.32,3.32,0,0,0,1.4-.05Z"/><path class="cls-22" d="M221.93,11.61l-3.51.87L199.89,43.09l3.45-.85Q212.59,26.91,221.93,11.61Z"/><path class="cls-23" d="M242.91,32.51l.29-.08a3.46,3.46,0,0,0,2.54-4.19l-.07-.29Z"/><path class="cls-13" d="M233.11,20a6,6,0,0,0-4.4,7.27l11.67-2.87A6,6,0,0,0,233.11,20Z"/><rect class="cls-24" x="208.79" y="25.1" width="12.96" height="17.23" transform="translate(-1.82 52.39) rotate(-13.82)"/><path class="cls-5" d="M216.17,30.33l-3.28.8a4.5,4.5,0,0,1-5.45-3.3h0a4.51,4.51,0,0,1,3.3-5.45l3.28-.8a4.5,4.5,0,0,1,5.45,3.29h0A4.51,4.51,0,0,1,216.17,30.33Z"/><rect class="cls-25" x="191.9" y="17.66" width="12.96" height="17.23" transform="translate(-0.54 48.14) rotate(-13.82)"/><path class="cls-14" d="M202.61,16.36a6.48,6.48,0,1,1-7.84-4.74A6.47,6.47,0,0,1,202.61,16.36Z"/><rect class="cls-13" x="129.97" y="73.4" width="56.59" height="8.7" transform="translate(-13.99 40.05) rotate(-13.82)"/><rect class="cls-4" x="134.59" y="78.7" width="4.26" height="8.7" transform="translate(-15.88 35.06) rotate(-13.82)"/><rect class="cls-4" x="142.26" y="77.03" width="2.48" height="8.7" transform="translate(-15.28 36.62) rotate(-13.82)"/><path class="cls-3" d="M142,131.43l-46.74,17c-5.33,1.94-18.4-.63-20.34-6L46,43.05a10.26,10.26,0,0,1,6.13-13.16L91.53,9.48C96.86,7.54,110,13.69,112,19l36.13,99.25A10.27,10.27,0,0,1,142,131.43Z"/><rect class="cls-15" x="53.01" y="14.76" width="70.27" height="126.17" rx="9.36" transform="translate(-21.31 34.84) rotate(-20)"/><rect class="cls-15" x="53.01" y="14.76" width="70.27" height="126.17" rx="9.36" transform="translate(-21.31 34.84) rotate(-20)"/><rect class="cls-13" x="50.94" y="25.28" width="70.27" height="93.77" transform="translate(-19.49 33.79) rotate(-20)"/><rect class="cls-5" x="62.82" y="92.89" width="70.35" height="24.1" transform="translate(-29.88 39.64) rotate(-19.91)"/><text class="cls-26" transform="translate(86.92 114.06) rotate(-19.91)"><tspan class="cls-27">P</tspan><tspan class="cls-28" x="5.6" y="0">A</tspan><tspan x="12.25" y="0">Y</tspan></text><rect class="cls-15" x="65.13" y="41.02" width="31.18" height="31.86" transform="translate(-14.74 31.51) rotate(-20.28)"/><path class="cls-4" d="M71.63,59.29a4.49,4.49,0,1,0,6.25,4.23l1.31.34s7.22-3,7.52-3.44c0,0-1.94-2.05-1.25-3.57.07-.16.17-.35.28-.55a4.49,4.49,0,1,0,2.71-4.24l-.11.06.36-.53-.43-.14s.8-.59.41-1S85,48.39,85,48.39a1.25,1.25,0,0,0-1-1.23l0,1s-1.26-.26-1.59,0-.88.61-.94,1l-.11.24a1.22,1.22,0,0,0,.56.63s3.37-.36,3.8.25c0,0,.39.34-.46.82l-.08.31-.46.23L82.93,50a4.55,4.55,0,0,0-1,1.09l.21.31a5.61,5.61,0,0,0-6.24,4,4.37,4.37,0,0,1-4.72.32s-.32-.69-4.34,1.19l.41.18a.62.62,0,0,0-.31.37c0,.23.23.35,1.16-.05,0,0,3.13,1.49,4.68.66l2.77.12,1.76,1.31.18.37-.72.5A4.48,4.48,0,0,0,71.63,59.29Zm17.36-6a3.11,3.11,0,1,1-1.63,4.08A3.11,3.11,0,0,1,89,53.33ZM74.63,66.27a3.11,3.11,0,1,1,1-5l-2.75,2,.66,1,2.91-1.41A3.12,3.12,0,0,1,74.63,66.27Zm3.92-4.53a1.18,1.18,0,0,0,.6.46l-1.3.62a4.38,4.38,0,0,0-.15-.68Z"/><line class="cls-29" x1="73.23" y1="81.66" x2="102.48" y2="70.85"/><line class="cls-29" x1="74.61" y1="85.41" x2="103.86" y2="74.6"/><line class="cls-29" x1="82.41" y1="86.78" x2="98.83" y2="80.72"/><path class="cls-30" d="M66.46,103.63Q85.65,62.37,104.9,21.15l-1.84-5.06L82.83,23.45c-1.26,2.71-2.53,5.43-3.8,8.14L53.65,85.8l9.26,25.45Z"/><path class="cls-31" d="M113.36,44.41,109.57,34q-5.08,10.88-10.15,21.76L67.57,124l1.52,4.2L75.33,126Z"/><path class="cls-13" d="M111.61,124.21a6.19,6.19,0,1,1-7.94-3.7A6.2,6.2,0,0,1,111.61,124.21Z"/><rect class="cls-13" x="57.81" y="22.43" width="21.4" height="2.95" rx="1.34" transform="translate(-4.05 24.87) rotate(-20)"/><rect class="cls-32" x="68.33" y="115.98" width="70.27" height="7.93" transform="translate(-34.78 42.62) rotate(-20)"/><g class="cls-33"><path class="cls-3" d="M167.15,225.92l-43.6-21.48c-5-2.45-12-13.42-9.55-18.39L164.59,98.4A10,10,0,0,1,178,93.83l41.07,14c5,2.45,9.55,15.91,7.1,20.88l-45.61,92.61A10,10,0,0,1,167.15,225.92Z"/><rect class="cls-15" x="134.23" y="90.05" width="68.68" height="123.3" rx="10.04" transform="translate(84.37 -58.87) rotate(26.22)"/><rect class="cls-15" x="134.23" y="90.05" width="68.68" height="123.3" rx="10.04" transform="translate(84.37 -58.87) rotate(26.22)"/><rect class="cls-13" x="136.84" y="100.58" width="68.68" height="91.64" transform="translate(82.3 -60.57) rotate(26.22)"/><path class="cls-34" d="M158.27,168.91h0a18.13,18.13,0,0,1-7.39-24.56l13-24.19,32,17.19-13,24.18A18.14,18.14,0,0,1,158.27,168.91Z"/><path class="cls-3" d="M175.4,146.47a4.46,4.46,0,1,1-1.81-6A4.45,4.45,0,0,1,175.4,146.47Z"/><polygon class="cls-3" points="168.75 157.23 162.1 153.65 168.59 146.31 171.3 147.76 168.75 157.23"/><path class="cls-35" d="M135.72,153.83q42.09-14.36,84.19-28.65l2.32-4.71-18.86-9.3L195.05,114q-27.7,9.39-55.42,18.75l-11.69,23.74Z"/><path class="cls-36" d="M209.22,146.89l4.8-9.74L191.8,144.7l-69.74,23.71-1.93,3.92L126,175.2Z"/><circle class="cls-13" cx="146.29" cy="196.94" r="6.05" transform="translate(-92.07 255) rotate(-67.08)"/><path class="cls-13" d="M200.81,106.65l-16.18-8a1.45,1.45,0,0,1-.65-1.93h0a1.44,1.44,0,0,1,1.93-.66l16.17,8a1.44,1.44,0,0,1,.66,1.93h0A1.44,1.44,0,0,1,200.81,106.65Z"/><rect class="cls-37" x="114.89" y="187.1" width="68.68" height="7.75" transform="translate(99.74 -46.28) rotate(26.22)"/></g><circle class="cls-4" cx="87.46" cy="165.49" r="30.68" transform="translate(-85.8 236.31) rotate(-84.38)"/><polygon class="cls-14" points="103.05 175.19 108.29 158.59 75.36 158.59 78.4 175.19 103.05 175.19"/><path class="cls-14" d="M97.56,181H80.31a1.16,1.16,0,0,1-1.13-1l-4.87-26.22a2.68,2.68,0,0,0-2.63-2.19H68.29a1.16,1.16,0,1,1,0-2.31h3.39a5,5,0,0,1,4.9,4.07l4.7,25.29H97.56a1.16,1.16,0,0,1,0,2.31Z"/><path class="cls-14" d="M86,182a2.62,2.62,0,1,1-2.62-2.62A2.62,2.62,0,0,1,86,182Z"/><path class="cls-14" d="M97.47,182a2.62,2.62,0,1,1-2.62-2.62A2.62,2.62,0,0,1,97.47,182Z"/><circle class="cls-5" cx="108.21" cy="154.19" r="12.51" transform="translate(-51.09 53.65) rotate(-22.68)"/><text class="cls-38" transform="translate(103.01 161.15)">1</text><path class="cls-3" d="M269.48,212.3a3.93,3.93,0,1,1,5.34,1.51A3.92,3.92,0,0,1,269.48,212.3Z"/><path class="cls-4" d="M243.14,195.42a3.93,3.93,0,1,1,5.34,1.51A3.92,3.92,0,0,1,243.14,195.42Z"/><path class="cls-4" d="M281.37,224.07a3.93,3.93,0,1,1,5.34,1.5A3.93,3.93,0,0,1,281.37,224.07Z"/><rect class="cls-5" x="190.34" y="188.44" width="45.17" height="11.21" rx="5.6"/><path class="cls-6" d="M260.57,214.07h-19.7a4.06,4.06,0,0,1-4.06-4.06h0a4.06,4.06,0,0,1,4.06-4.06h19.7a4.06,4.06,0,0,1,4.06,4.06h0A4.06,4.06,0,0,1,260.57,214.07Z"/><path class="cls-6" d="M284.66,239.24H243.08a4.06,4.06,0,0,1-4.06-4.06h0a4.06,4.06,0,0,1,4.06-4.06h41.58a4.06,4.06,0,0,1,4.06,4.06h0A4.06,4.06,0,0,1,284.66,239.24Z"/><rect class="cls-5" x="212.4" y="219.06" width="19.82" height="8.12" rx="4.06"/><path class="cls-3" d="M278.15,199.26H263.46a4.06,4.06,0,0,1-4.06-4.06h0a4.06,4.06,0,0,1,4.06-4.06h14.69a4.06,4.06,0,0,1,4.06,4.06h0A4.06,4.06,0,0,1,278.15,199.26Z"/><rect class="cls-3" x="241.16" y="219.06" width="27.82" height="8.12" rx="4.06"/><path class="cls-13" d="M206,194.19a3.34,3.34,0,0,0-3.34-3.33H133.93a3.34,3.34,0,0,0-3.34,3.33v30.06H206Z"/><path class="cls-13" d="M130.59,233.71a3.34,3.34,0,0,0,3.34,3.34h68.72a3.34,3.34,0,0,0,3.34-3.34v-2.2h-75.4Z"/><rect class="cls-3" x="130.59" y="224.25" width="75.39" height="7.26"/><rect class="cls-3" x="138.24" y="213.74" width="13.71" height="7.26"/><rect class="cls-3" x="138.24" y="200.78" width="59.11" height="7.26"/><path class="cls-4" d="M198,217.62a4.06,4.06,0,1,1-4.06-4.06A4.05,4.05,0,0,1,198,217.62Z"/><path class="cls-5" d="M192.54,217.62a4.06,4.06,0,1,1-4-4.06A4,4,0,0,1,192.54,217.62Z"/><path class="cls-39" d="M133.93,237.05h7.34l3.23-3.2q12.67-12.61,25.34-25.26l17.74-17.73h-24c-.67.66-1.33,1.33-2,2q-13.71,13.77-27.46,27.5l-3.52,3.5v9.85A3.34,3.34,0,0,0,133.93,237.05Z"/><path class="cls-40" d="M165.62,234.42l25.22-25.22L206,194.06a3.33,3.33,0,0,0-3.33-3.2h-6.2L185.1,202.12q-11.65,11.58-23.26,23.21-5.84,5.85-11.66,11.72H163Z"/><path class="cls-5" d="M202.54,188.44H134a5.87,5.87,0,0,0-5.86,5.86v39.3a5.87,5.87,0,0,0,5.86,5.87h68.5a5.87,5.87,0,0,0,5.86-5.87V194.3A5.87,5.87,0,0,0,202.54,188.44ZM206,224.25v9.46a3.34,3.34,0,0,1-3.34,3.34H133.93a3.34,3.34,0,0,1-3.34-3.34V194.19a3.34,3.34,0,0,1,3.34-3.33h68.72a3.34,3.34,0,0,1,3.34,3.33Z"/></g></g></g></svg>